<?xml version="1.0" encoding="UTF-8"?>
<svg width="228.06" height="182.42" version="1.1" viewBox="0 0 60.34 48.265" xmlns="http://www.w3.org/2000/svg">
	<path
		d="m26.295 48.218-5.7507-1.6686c-.60336-.16969-.94275-.80133-.77305-1.4047l12.868-44.328c.16969-.60335.80133-.94274 1.4047-.77305l5.7507 1.6687c.60336.16969.94275.80133.77305 1.4047l-12.868 44.328c-.17912.60335-.80133.95217-1.4047.77305zm-10.747-10.578 4.1009-4.3743c.43365-.46194.40538-1.1973-.07537-1.6215l-8.5412-7.5136 8.5412-7.5136c.4808-.42423.5185-1.1596.07537-1.6215l-4.1009-4.3743c-.42423-.45252-1.1407-.4808-1.6027-.04713l-13.585 12.727c-.4808.44309-.4808 1.2067 0 1.6498l13.585 12.736c.46195.43366 1.1784.4148 1.6027-.04714zm30.846.05656 13.585-12.736c.4808-.44309.4808-1.2067 0-1.6498l-13.585-12.746c-.45252-.42423-1.169-.40538-1.6027.04713l-4.1009 4.3743c-.43365.46194-.40538 1.1973.07537 1.6215l8.5412 7.5231-8.5412 7.5136c-.4808.42423-.5185 1.1596-.07537 1.6215l4.1009 4.3743c.42422.46194 1.1407.4808 1.6027.05656z"
		fill="#c95497" stroke-width=".094274"/>
</svg>
