<?xml version="1.0" standalone="no"?>
<!DOCTYPE svg PUBLIC "-//W3C//DTD SVG 20010904//EN"
 "http://www.w3.org/TR/2001/REC-SVG-20010904/DTD/svg10.dtd">
<svg version="1.0" xmlns="http://www.w3.org/2000/svg"
 width="700.000000pt" height="700.000000pt" viewBox="0 0 700.000000 700.000000"
 preserveAspectRatio="xMidYMid meet">
<metadata>
Created by potrace 1.14, written by Peter Selinger 2001-2017
</metadata>
<g transform="translate(0.000000,700.000000) scale(0.100000,-0.100000)"
fill="#000000" stroke="none">
<path d="M3814 6073 c-47 -9 -71 -53 -119 -218 -25 -88 -50 -173 -56 -190 -11
-36 -58 -197 -69 -240 -4 -16 -33 -118 -65 -225 -99 -339 -126 -431 -172 -590
-24 -85 -85 -294 -134 -465 -50 -170 -115 -395 -146 -500 -30 -104 -97 -336
-149 -515 -150 -514 -258 -888 -390 -1345 -41 -143 -84 -289 -95 -325 -13 -42
-18 -78 -14 -101 11 -66 40 -81 275 -149 118 -34 259 -75 314 -91 54 -16 110
-29 123 -29 30 0 75 25 91 51 11 17 48 134 91 289 10 36 49 169 86 295 67 229
92 317 100 345 2 8 67 233 145 500 77 267 204 703 281 970 78 267 156 537 175
600 85 290 227 778 234 805 6 27 88 307 195 675 20 69 39 137 41 152 6 35 -18
93 -48 112 -18 11 -304 99 -433 133 -11 3 -56 16 -100 28 -94 27 -132 34 -161
28z"/>
<path d="M1841 5008 c-13 -4 -48 -32 -79 -62 -32 -30 -70 -67 -87 -82 -16 -15
-86 -79 -154 -143 -68 -64 -140 -131 -160 -150 -20 -18 -70 -66 -111 -105 -87
-81 -327 -306 -381 -357 -21 -19 -90 -84 -155 -145 -66 -62 -135 -126 -154
-144 -170 -156 -204 -198 -196 -242 3 -13 5 -29 5 -36 1 -14 43 -57 226 -227
148 -138 261 -244 390 -365 202 -189 311 -292 610 -572 39 -36 104 -98 145
-136 129 -122 161 -122 279 1 193 200 375 397 385 415 20 34 23 77 8 107 -16
33 -16 33 -122 125 -41 36 -84 74 -96 85 -11 11 -50 45 -85 75 -53 46 -153
134 -465 409 -22 20 -63 56 -91 80 l-50 43 56 52 c32 28 86 76 121 106 34 30
68 59 74 65 14 12 76 67 176 155 119 104 182 160 226 199 22 20 69 61 105 91
105 90 159 148 160 172 4 70 -4 81 -156 243 -66 70 -140 148 -164 174 -125
133 -165 171 -180 172 -9 1 -25 3 -36 4 -11 1 -31 -2 -44 -7z"/>
<path d="M5028 5006 c-14 -8 -53 -42 -85 -76 -32 -35 -71 -77 -88 -95 -294
-311 -311 -331 -318 -376 -8 -48 27 -94 152 -197 24 -21 51 -44 60 -53 9 -9
41 -38 71 -64 30 -26 87 -76 125 -110 82 -72 150 -132 354 -310 83 -71 150
-135 150 -142 1 -6 -7 -18 -18 -25 -15 -11 -104 -88 -187 -163 -12 -11 -44
-39 -71 -62 -26 -22 -62 -54 -80 -70 -17 -15 -59 -53 -94 -83 -35 -30 -73 -64
-85 -75 -12 -11 -48 -42 -79 -70 -32 -27 -66 -57 -75 -65 -9 -8 -49 -43 -87
-78 -39 -34 -82 -71 -96 -82 -40 -32 -53 -109 -24 -151 19 -26 209 -230 379
-406 124 -129 163 -132 278 -22 50 47 255 239 334 314 18 17 90 84 160 150 71
66 144 135 165 154 20 19 97 91 171 161 74 70 149 139 165 154 70 63 303 284
341 322 44 45 61 94 45 135 -8 22 -64 80 -191 199 -25 23 -94 87 -154 143 -60
56 -127 120 -151 142 -23 22 -99 94 -170 160 -71 66 -140 131 -155 145 -124
117 -304 287 -327 307 -15 15 -85 80 -154 145 -69 65 -135 125 -146 133 -32
22 -84 27 -115 11z"/>
</g>
</svg>
